<svg width="26" height="26" viewBox="0 0 26 26" fill="none" xmlns="http://www.w3.org/2000/svg">
<g filter="url(#filter0_d_42_6050)">
<path d="M13 5.16797C13.3883 5.16797 13.7031 4.85317 13.7031 4.46484C13.7031 4.07652 13.3883 3.76172 13 3.76172C12.6117 3.76172 12.2969 4.07652 12.2969 4.46484C12.2969 4.85317 12.6117 5.16797 13 5.16797Z" fill="white"/>
<path d="M19.364 2.63602C17.6641 0.936176 15.404 0 13 0C10.596 0 8.33593 0.936176 6.63602 2.63602C4.93618 4.33593 4 6.59602 4 9C4 11.404 4.93618 13.6641 6.63602 15.364C8.33593 17.0638 10.596 18 13 18C14.6458 18 16.2561 17.5515 17.6568 16.703C17.989 16.5017 18.0951 16.0694 17.8939 15.7373C17.6927 15.4051 17.2604 15.299 16.9283 15.5002C15.7472 16.2156 14.3889 16.5938 13 16.5938C8.81279 16.5938 5.40625 13.1872 5.40625 9C5.40625 4.81279 8.81279 1.40625 13 1.40625C17.1872 1.40625 20.5938 4.81279 20.5938 9C20.5938 10.4973 20.1485 11.9547 19.3061 13.2147C19.0903 13.5375 19.177 13.9742 19.4998 14.19C19.8227 14.4058 20.2593 14.3191 20.4751 13.9963C21.4727 12.5042 22 10.7764 22 9C22 6.59602 21.0638 4.33593 19.364 2.63602Z" fill="white"/>
<path d="M13 6.57422C12.6117 6.57422 12.2969 6.88901 12.2969 7.27734V13.5352C12.2969 13.9235 12.6117 14.2383 13 14.2383C13.3883 14.2383 13.7031 13.9235 13.7031 13.5352V7.27734C13.7031 6.88901 13.3883 6.57422 13 6.57422Z" fill="white"/>
</g>
<defs>
<filter id="filter0_d_42_6050" x="0" y="0" width="26" height="26" filterUnits="userSpaceOnUse" color-interpolation-filters="sRGB">
<feFlood flood-opacity="0" result="BackgroundImageFix"/>
<feColorMatrix in="SourceAlpha" type="matrix" values="0 0 0 0 0 0 0 0 0 0 0 0 0 0 0 0 0 0 127 0" result="hardAlpha"/>
<feOffset dy="4"/>
<feGaussianBlur stdDeviation="2"/>
<feComposite in2="hardAlpha" operator="out"/>
<feColorMatrix type="matrix" values="0 0 0 0 0 0 0 0 0 0 0 0 0 0 0 0 0 0 0.25 0"/>
<feBlend mode="normal" in2="BackgroundImageFix" result="effect1_dropShadow_42_6050"/>
<feBlend mode="normal" in="SourceGraphic" in2="effect1_dropShadow_42_6050" result="shape"/>
</filter>
</defs>
</svg>
